<svg xmlns="http://www.w3.org/2000/svg" version="1.1" x="0px" y="0px" width="24" height="20" viewBox="0 0 24 20" enable-background="new 0 0 24 20" xml:space="preserve">
  <path fill="#aaa" d="m19.1 8.9c-0.2-0.2-0.5-0.4-0.9-0.4l-0.4 0 0-2.4c0-1.6-0.6-2.9-1.7-4 -1.1-1.1-2.4-1.7-4-1.7 -1.6 0-2.9 0.6-4 1.7 -1.1 1.1-1.7 2.4-1.7 4l0 2.4 -0.4 0c-0.3 0-0.6 0.1-0.9 0.4 -0.2 0.2-0.4 0.5-0.4 0.9l0 7.3c0 0.3 0.1 0.6 0.4 0.9 0.2 0.2 0.5 0.4 0.9 0.4l12.2 0c0.3 0 0.6-0.1 0.9-0.4 0.2-0.2 0.4-0.5 0.4-0.9l0-7.3c0-0.3-0.1-0.6-0.4-0.9zm-3.7-0.4l-6.5 0 0-2.4c0-0.9 0.3-1.7 0.9-2.3 0.6-0.6 1.4-0.9 2.3-0.9 0.9 0 1.7 0.3 2.3 0.9 0.6 0.6 0.9 1.4 0.9 2.3l0 2.4z" />
</svg>
